<svg height="193.67812499999997" version="1.1" width="195.18374999999997" xmlns="http://www.w3.org/2000/svg" xmlns:xlink="http://www.w3.org/1999/xlink" style="overflow: hidden; position: relative; left: -0.724419px; top: -0.784086px;" viewBox="278.98762500000004 121.16190000000006 195.18374999999997 193.67812499999997" preserveAspectRatio="xMinYMin" id="main_svg"><desc style="-webkit-tap-highlight-color: rgba(0, 0, 0, 0);">Created with Logotizer</desc><defs style="-webkit-tap-highlight-color: rgba(0, 0, 0, 0);"></defs><path fill="#000000" stroke="none" d="M-30.63,-17.18Q-30.63,-25.48,-25.89,-30.12Q-21.14,-34.76,-12.73,-34.76Q-7.45,-34.76,-2.55,-32.65L-4.97,-26.84Q-8.72,-28.71,-12.77,-28.71Q-17.48,-28.71,-20.32,-25.55Q-23.16,-22.38,-23.16,-17.04Q-23.16,-11.46,-20.87,-8.52Q-18.59,-5.58,-14.23,-5.58Q-11.95,-5.58,-9.61,-6.05L-9.61,-13.2L-16.1,-13.2L-16.1,-19.24L-2.51,-19.24L-2.51,-1.48Q-5.81,-0.4,-8.73,0.04Q-11.65,0.47,-14.7,0.47Q-22.45,0.47,-26.54,-4.09Q-30.63,-8.65,-30.63,-17.18ZM5.65,0L5.65,-34.27L12.91,-34.27L12.91,-18.59L15.77,-22.62L25.05,-34.27L33.12,-34.27L21.16,-19.1L33.21,0L24.96,0L15.98,-14.44L12.91,-12.23L12.91,0L5.65,0Z" transform="matrix(2.92,0,0,2.92,376.3058,271.1769)" style="-webkit-tap-highlight-color: rgba(0, 0, 0, 0);" stroke-width="1"></path></svg>